<mxfile host="app.diagrams.net" modified="2023-12-08T21:24:49.149Z" agent="Mozilla/5.0 (Windows NT 10.0; Win64; x64) AppleWebKit/537.36 (KHTML, like Gecko) Chrome/119.0.0.0 Safari/537.36" etag="CWReyJG49nclJhjhJVcx" version="22.1.7" type="device">
  <diagram name="Page-1" id="5nuNEwp7geA0TZlM_HXr">
    <mxGraphModel dx="1116" dy="602" grid="1" gridSize="10" guides="1" tooltips="1" connect="1" arrows="1" fold="1" page="1" pageScale="1" pageWidth="1169" pageHeight="827" math="0" shadow="0">
      <root>
        <mxCell id="0" />
        <mxCell id="1" parent="0" />
        <mxCell id="KzKOROUcKOEuIQucyDnu-1" value="" style="rounded=0;whiteSpace=wrap;html=1;fillColor=none;" parent="1" vertex="1">
          <mxGeometry x="40" y="40" width="240" height="230" as="geometry" />
        </mxCell>
        <mxCell id="KzKOROUcKOEuIQucyDnu-2" value="" style="endArrow=none;html=1;rounded=0;strokeWidth=1;" parent="1" edge="1">
          <mxGeometry width="50" height="50" relative="1" as="geometry">
            <mxPoint x="250" y="70" as="sourcePoint" />
            <mxPoint x="270" y="49.99999999999994" as="targetPoint" />
          </mxGeometry>
        </mxCell>
        <mxCell id="KzKOROUcKOEuIQucyDnu-3" value="" style="endArrow=none;html=1;rounded=0;strokeWidth=1;" parent="1" edge="1">
          <mxGeometry width="50" height="50" relative="1" as="geometry">
            <mxPoint x="270" y="70" as="sourcePoint" />
            <mxPoint x="250" y="49.99999999999994" as="targetPoint" />
          </mxGeometry>
        </mxCell>
        <mxCell id="KzKOROUcKOEuIQucyDnu-4" value="Back" style="text;html=1;strokeColor=none;fillColor=none;align=left;verticalAlign=middle;whiteSpace=wrap;rounded=0;spacingLeft=2;" parent="1" vertex="1">
          <mxGeometry x="70" y="49.99999999999994" width="60" height="20" as="geometry" />
        </mxCell>
        <mxCell id="KzKOROUcKOEuIQucyDnu-5" value="" style="shape=image;html=1;verticalAlign=top;verticalLabelPosition=bottom;labelBackgroundColor=#ffffff;imageAspect=0;aspect=fixed;image=https://cdn4.iconfinder.com/data/icons/ionicons/512/icon-arrow-left-a-128.png;fontColor=#808080;imageBackground=none;" parent="1" vertex="1">
          <mxGeometry x="50" y="49.99999999999994" width="20" height="20" as="geometry" />
        </mxCell>
        <mxCell id="KzKOROUcKOEuIQucyDnu-6" value="You are logged with WebID:" style="text;html=1;strokeColor=none;fillColor=none;align=left;verticalAlign=middle;whiteSpace=wrap;rounded=0;spacingLeft=2;" parent="1" vertex="1">
          <mxGeometry x="50" y="88.92999999999995" width="220" height="21.07" as="geometry" />
        </mxCell>
        <mxCell id="KzKOROUcKOEuIQucyDnu-7" value="http://www.example.com/user#me" style="text;html=1;strokeColor=none;fillColor=none;align=center;verticalAlign=middle;whiteSpace=wrap;rounded=0;spacingLeft=2;" parent="1" vertex="1">
          <mxGeometry x="50" y="110" width="220" height="30" as="geometry" />
        </mxCell>
        <mxCell id="KzKOROUcKOEuIQucyDnu-8" value="http://www.storage.com/1abc-e42k-..." style="rounded=1;whiteSpace=wrap;html=1;align=left;spacingLeft=2;" parent="1" vertex="1">
          <mxGeometry x="50" y="168.92999999999995" width="220" height="20" as="geometry" />
        </mxCell>
        <mxCell id="KzKOROUcKOEuIQucyDnu-9" value="Select a Pod:" style="text;html=1;strokeColor=none;fillColor=none;align=left;verticalAlign=middle;whiteSpace=wrap;rounded=0;spacingLeft=2;" parent="1" vertex="1">
          <mxGeometry x="50" y="140" width="220" height="21.07" as="geometry" />
        </mxCell>
        <mxCell id="KzKOROUcKOEuIQucyDnu-10" value="" style="html=1;verticalLabelPosition=bottom;labelBackgroundColor=#ffffff;verticalAlign=top;shadow=0;dashed=0;strokeWidth=2;shape=mxgraph.ios7.misc.down;strokeColor=#000000;direction=east;" parent="1" vertex="1">
          <mxGeometry x="254" y="175.93000000000006" width="12" height="6" as="geometry" />
        </mxCell>
        <mxCell id="KzKOROUcKOEuIQucyDnu-11" value="Activate Pod" style="rounded=1;whiteSpace=wrap;html=1;align=center;fillColor=#E6E6E6;" parent="1" vertex="1">
          <mxGeometry x="120" y="199.30999999999995" width="80" height="20" as="geometry" />
        </mxCell>
        <mxCell id="KzKOROUcKOEuIQucyDnu-12" value="Log out" style="rounded=1;whiteSpace=wrap;html=1;align=center;fillColor=#E6E6E6;" parent="1" vertex="1">
          <mxGeometry x="120" y="239.30999999999995" width="80" height="20" as="geometry" />
        </mxCell>
      </root>
    </mxGraphModel>
  </diagram>
</mxfile>
